<svg width="32" height="32" viewBox="0 0 32 32" fill="none" xmlns="http://www.w3.org/2000/svg">
<path d="M9.6666 26.6667C9.24438 26.6667 8.89993 26.5 8.63326 26.1667C8.3666 25.8334 8.28882 25.4667 8.39993 25.0667L9.33326 21.3334H6.3666C5.92215 21.3334 5.5666 21.1614 5.29993 20.8174C5.03326 20.4725 4.95549 20.0889 5.0666 19.6667C5.13326 19.3556 5.28882 19.1112 5.53326 18.9334C5.77771 18.7556 6.05549 18.6667 6.3666 18.6667H9.99993L11.3333 13.3334H7.69993C7.25549 13.3334 6.89993 13.1614 6.63326 12.8174C6.3666 12.4725 6.28882 12.0889 6.39993 11.6667C6.4666 11.3556 6.62215 11.1112 6.8666 10.9334C7.11104 10.7556 7.38882 10.6667 7.69993 10.6667H11.9999L13.0999 6.30004C13.1666 6.01115 13.311 5.77782 13.5333 5.60004C13.7555 5.42226 14.0222 5.33337 14.3333 5.33337C14.7555 5.33337 15.0999 5.50004 15.3666 5.83337C15.6333 6.16671 15.711 6.53337 15.5999 6.93337L14.6666 10.6667H19.9999L21.0999 6.30004C21.1666 6.01115 21.311 5.77782 21.5333 5.60004C21.7555 5.42226 22.0222 5.33337 22.3333 5.33337C22.7555 5.33337 23.0999 5.50004 23.3666 5.83337C23.6333 6.16671 23.711 6.53337 23.5999 6.93337L22.6666 10.6667H25.6333C26.0777 10.6667 26.4333 10.8387 26.6999 11.1827C26.9666 11.5276 27.0444 11.9112 26.9333 12.3334C26.8666 12.6445 26.711 12.8889 26.4666 13.0667C26.2222 13.2445 25.9444 13.3334 25.6333 13.3334H21.9999L20.6666 18.6667H24.2999C24.7444 18.6667 25.0999 18.8387 25.3666 19.1827C25.6333 19.5276 25.711 19.9112 25.5999 20.3334C25.5333 20.6445 25.3777 20.8889 25.1333 21.0667C24.8888 21.2445 24.611 21.3334 24.2999 21.3334H19.9999L18.8999 25.7C18.8333 25.9889 18.6888 26.2223 18.4666 26.4C18.2444 26.5778 17.9777 26.6667 17.6666 26.6667C17.2444 26.6667 16.8999 26.5 16.6333 26.1667C16.3666 25.8334 16.2888 25.4667 16.3999 25.0667L17.3333 21.3334H11.9999L10.8999 25.7C10.8333 25.9889 10.6888 26.2223 10.4666 26.4C10.2444 26.5778 9.97771 26.6667 9.6666 26.6667ZM12.6666 18.6667H17.9999L19.3333 13.3334H13.9999L12.6666 18.6667Z" fill="black"/>
</svg>
