<svg width="825" height="192" viewBox="0 0 825 192" fill="none" xmlns="http://www.w3.org/2000/svg">
<path d="M6.19803 151.532C6.19803 151.272 6.40603 151.116 6.82203 151.064L14.544 149.972C15.428 149.816 16.052 149.582 16.416 149.27C16.78 148.958 16.962 148.49 16.962 147.866V47.09C16.962 46.362 16.78 45.842 16.416 45.53C16.052 45.218 15.402 44.984 14.466 44.828L6.82203 43.736C6.40603 43.632 6.19803 43.45 6.19803 43.19C6.19803 43.034 6.25003 42.93 6.35403 42.878C6.45803 42.826 6.61403 42.8 6.82203 42.8H41.142C50.606 42.8 59.186 44.178 66.882 46.934C74.63 49.69 81.286 53.694 86.85 58.946C92.414 64.146 96.704 70.412 99.72 77.744C102.736 85.076 104.244 93.344 104.244 102.548C104.244 112.896 101.956 121.762 97.38 129.146C92.856 136.53 86.538 142.198 78.426 146.15C70.366 150.05 61.032 152 50.424 152H6.82203C6.56203 152 6.38003 151.974 6.27603 151.922C6.22403 151.818 6.19803 151.688 6.19803 151.532ZM50.424 150.752C57.548 150.752 63.866 148.958 69.378 145.37C74.942 141.782 79.31 136.27 82.482 128.834C85.706 121.398 87.318 111.934 87.318 100.442C87.318 91.55 86.304 83.62 84.276 76.652C82.248 69.632 79.258 63.704 75.306 58.868C71.354 54.032 66.518 50.366 60.798 47.87C55.078 45.322 48.552 44.048 41.22 44.048H33.03V148.022C33.03 148.906 33.264 149.582 33.732 150.05C34.2 150.518 34.85 150.752 35.682 150.752H50.424ZM171.365 110.894C171.365 111.258 171.235 111.57 170.975 111.83C170.715 112.09 170.351 112.22 169.883 112.22H121.757V111.05H156.311C157.091 111.05 157.481 110.608 157.481 109.724C157.481 101.092 156.103 94.592 153.347 90.224C150.591 85.856 147.107 83.672 142.895 83.672C139.203 83.672 136.057 84.816 133.457 87.104C130.857 89.34 128.855 92.642 127.451 97.01C126.047 101.378 125.345 106.682 125.345 112.922C125.345 123.634 127.633 131.772 132.209 137.336C136.837 142.9 142.791 145.682 150.071 145.682C155.271 145.682 159.717 144.174 163.409 141.158C167.153 138.142 169.389 134.034 170.117 128.834C170.117 128.626 170.143 128.496 170.195 128.444C170.299 128.34 170.377 128.288 170.429 128.288C170.585 128.288 170.715 128.34 170.819 128.444C170.923 128.496 170.949 128.678 170.897 128.99C170.481 133.67 168.999 137.882 166.451 141.626C163.955 145.318 160.679 148.23 156.623 150.362C152.619 152.494 148.121 153.56 143.129 153.56C137.045 153.56 131.689 152.182 127.061 149.426C122.485 146.67 118.923 142.744 116.375 137.648C113.827 132.552 112.553 126.572 112.553 119.708C112.553 112.532 113.879 106.162 116.531 100.598C119.183 94.982 122.901 90.588 127.685 87.416C132.469 84.192 138.085 82.58 144.533 82.58C149.993 82.58 154.725 83.802 158.729 86.246C162.733 88.69 165.827 92.044 168.011 96.308C170.247 100.572 171.365 105.434 171.365 110.894ZM210.992 152.234H205.532C205.22 152.234 204.934 152.156 204.674 152C204.414 151.844 204.232 151.584 204.128 151.22L181.118 90.146C180.702 89.106 180.208 88.196 179.636 87.416C179.116 86.636 178.388 86.168 177.452 86.012L174.254 85.388C173.89 85.284 173.63 85.18 173.474 85.076C173.266 84.972 173.162 84.842 173.162 84.686C173.162 84.53 173.24 84.426 173.396 84.374C173.5 84.322 173.604 84.296 173.708 84.296H204.752C205.116 84.296 205.298 84.426 205.298 84.686C205.298 84.842 205.246 84.972 205.142 85.076C205.09 85.128 204.908 85.18 204.596 85.232L200.774 86.012C198.018 86.532 196.354 87.234 195.782 88.118C195.262 88.95 195.314 90.172 195.938 91.784L214.502 142.328L212.006 147.008L231.584 93.266C232.312 91.238 232.338 89.652 231.662 88.508C230.986 87.312 229.348 86.48 226.748 86.012L222.458 85.232C222.198 85.18 222.016 85.128 221.912 85.076C221.808 84.972 221.756 84.842 221.756 84.686C221.756 84.53 221.808 84.426 221.912 84.374C222.016 84.322 222.146 84.296 222.302 84.296H242.738C242.894 84.296 242.998 84.322 243.05 84.374C243.154 84.426 243.206 84.53 243.206 84.686C243.206 84.842 243.128 84.972 242.972 85.076C242.868 85.18 242.608 85.284 242.192 85.388L239.384 85.934C238.084 86.194 236.992 86.87 236.108 87.962C235.224 89.002 234.444 90.51 233.768 92.486L212.24 151.298C212.136 151.61 211.954 151.844 211.694 152C211.486 152.156 211.252 152.234 210.992 152.234ZM267.11 147.944C267.11 148.516 267.24 148.958 267.5 149.27C267.812 149.582 268.306 149.816 268.982 149.972L278.186 150.986C278.446 150.986 278.628 151.038 278.732 151.142C278.888 151.246 278.966 151.376 278.966 151.532C278.966 151.844 278.784 152 278.42 152H245.504C245.4 152 245.296 151.974 245.192 151.922C245.088 151.818 245.036 151.714 245.036 151.61C245.036 151.454 245.088 151.35 245.192 151.298C245.348 151.194 245.53 151.116 245.738 151.064L251.822 150.05C252.446 149.946 252.888 149.738 253.148 149.426C253.46 149.114 253.616 148.776 253.616 148.412V88.43C253.616 88.066 253.512 87.754 253.304 87.494C253.148 87.182 252.862 87 252.446 86.948L243.008 85.232C242.852 85.18 242.722 85.128 242.618 85.076C242.566 84.972 242.54 84.842 242.54 84.686C242.54 84.582 242.592 84.504 242.696 84.452C242.8 84.348 242.904 84.296 243.008 84.296H254.552L253.772 84.842V83.516C253.772 81.748 253.434 80.006 252.758 78.29C252.082 76.522 251.276 74.702 250.34 72.83C249.456 70.906 248.676 68.878 248 66.746C247.324 64.562 246.986 62.196 246.986 59.648C246.986 53.772 248.754 49.118 252.29 45.686C255.826 42.202 260.48 40.46 266.252 40.46C269.84 40.46 272.83 41.084 275.222 42.332C277.666 43.528 279.486 45.14 280.682 47.168C281.93 49.144 282.554 51.328 282.554 53.72C282.554 56.164 281.956 58.01 280.76 59.258C279.564 60.454 278.056 61.052 276.236 61.052C274.364 61.052 272.778 60.428 271.478 59.18C270.23 57.88 269.606 56.06 269.606 53.72V47.792C269.606 45.764 269.112 44.256 268.124 43.268C267.188 42.228 265.68 41.708 263.6 41.708C260.48 41.708 257.984 42.748 256.112 44.828C254.24 46.908 253.304 49.768 253.304 53.408C253.304 55.956 253.746 58.4 254.63 60.74C255.566 63.028 256.71 65.238 258.062 67.37C259.466 69.45 260.844 71.478 262.196 73.454C263.6 75.378 264.744 77.25 265.628 79.07C266.564 80.89 267.032 82.632 267.032 84.296V85.544L266.252 84.296H279.98C280.24 84.296 280.422 84.322 280.526 84.374C280.682 84.426 280.76 84.53 280.76 84.686C280.76 84.998 280.604 85.232 280.292 85.388C279.98 85.544 279.59 85.622 279.122 85.622H267.11V147.944ZM325.347 144.824V144.278L324.723 144.824V97.868C324.723 93.24 323.813 89.704 321.993 87.26C320.173 84.764 317.443 83.516 313.803 83.516C309.747 83.516 306.783 84.478 304.911 86.402C303.039 88.326 302.103 90.328 302.103 92.408V97.79C302.103 99.922 301.375 101.69 299.919 103.094C298.515 104.446 296.747 105.122 294.615 105.122C293.003 105.122 291.651 104.602 290.559 103.562C289.519 102.47 288.999 100.884 288.999 98.804C288.999 96.204 289.987 93.656 291.963 91.16C293.991 88.664 296.955 86.61 300.855 84.998C304.807 83.386 309.643 82.58 315.363 82.58C323.215 82.58 329.039 84.322 332.835 87.806C336.683 91.238 338.607 96.022 338.607 102.158V143.576C338.607 145.708 338.945 147.242 339.621 148.178C340.349 149.062 341.233 149.504 342.273 149.504C343.209 149.504 344.041 149.218 344.769 148.646C345.549 148.074 345.991 147.216 346.095 146.072C346.147 145.864 346.199 145.734 346.251 145.682C346.355 145.63 346.433 145.604 346.485 145.604C346.641 145.604 346.719 145.63 346.719 145.682C346.771 145.734 346.797 145.864 346.797 146.072C346.797 146.904 346.433 147.892 345.705 149.036C344.977 150.18 343.807 151.168 342.195 152C340.583 152.884 338.451 153.326 335.799 153.326C332.263 153.326 329.637 152.546 327.921 150.986C326.205 149.426 325.347 147.372 325.347 144.824ZM285.255 137.024C285.255 131.72 287.465 127.378 291.885 123.998C296.305 120.618 303.039 118.928 312.087 118.928C315.779 118.928 318.821 119.266 321.213 119.942C323.605 120.618 325.815 121.45 327.843 122.438L327.375 122.984C325.347 122.048 323.215 121.294 320.979 120.722C318.795 120.15 316.351 119.864 313.647 119.864C308.967 119.864 305.405 121.216 302.961 123.92C300.517 126.624 299.295 130.29 299.295 134.918C299.295 139.442 300.439 142.978 302.727 145.526C305.067 148.074 308.135 149.348 311.931 149.348C314.531 149.348 317.105 148.776 319.653 147.632C322.201 146.488 324.333 144.824 326.049 142.64L326.751 143.108C324.463 146.436 321.343 148.984 317.391 150.752C313.439 152.52 309.175 153.404 304.599 153.404C298.827 153.404 294.147 151.896 290.559 148.88C287.023 145.812 285.255 141.86 285.255 137.024ZM379.579 152.234C383.583 152.234 386.755 151.168 389.095 149.036C391.487 146.904 392.683 144.122 392.683 140.69C392.683 138.35 392.137 136.27 391.045 134.45C390.005 132.578 388.211 130.888 385.663 129.38C383.167 127.82 379.735 126.338 375.367 124.934C369.647 123.062 365.097 121.034 361.717 118.85C358.389 116.614 356.023 114.092 354.619 111.284C353.215 108.476 352.513 105.278 352.513 101.69C352.513 95.554 354.593 90.822 358.753 87.494C362.913 84.114 368.425 82.424 375.289 82.424C378.409 82.424 380.983 82.736 383.011 83.36C385.039 83.984 386.573 84.608 387.613 85.232C388.705 85.804 389.407 86.09 389.719 86.09C390.135 86.09 390.889 85.804 391.981 85.232C393.073 84.608 394.139 83.984 395.179 83.36C396.219 82.736 396.869 82.424 397.129 82.424C397.285 82.424 397.441 82.476 397.597 82.58C397.753 82.632 397.857 82.814 397.909 83.126L402.511 104.498C402.615 104.81 402.641 105.096 402.589 105.356C402.537 105.564 402.433 105.72 402.277 105.824C402.121 105.876 401.965 105.876 401.809 105.824C401.705 105.72 401.575 105.59 401.419 105.434C398.923 100.026 396.375 95.736 393.775 92.564C391.175 89.34 388.393 87.026 385.429 85.622C382.517 84.218 379.319 83.516 375.835 83.516C371.467 83.516 368.035 84.634 365.539 86.87C363.043 89.054 361.795 91.992 361.795 95.684C361.795 97.972 362.315 100.052 363.355 101.924C364.395 103.796 366.241 105.512 368.893 107.072C371.597 108.58 375.393 110.036 380.281 111.44C385.533 113 389.745 114.872 392.917 117.056C396.141 119.188 398.481 121.684 399.937 124.544C401.445 127.404 402.199 130.602 402.199 134.138C402.199 138.038 401.263 141.444 399.391 144.356C397.519 147.216 394.945 149.452 391.669 151.064C388.393 152.676 384.675 153.482 380.515 153.482C377.707 153.482 375.263 153.04 373.183 152.156C371.103 151.324 369.439 150.492 368.191 149.66C366.943 148.776 366.163 148.334 365.851 148.334C365.591 148.334 365.045 148.75 364.213 149.582C363.381 150.362 362.497 151.142 361.561 151.922C360.677 152.702 360.053 153.092 359.689 153.092C359.533 153.092 359.351 153.014 359.143 152.858C358.935 152.702 358.779 152.39 358.675 151.922L354.853 133.28C354.801 132.812 354.775 132.474 354.775 132.266C354.827 132.006 354.957 131.824 355.165 131.72C355.269 131.616 355.373 131.616 355.477 131.72C355.633 131.824 355.737 131.954 355.789 132.11C359.533 139.546 363.459 144.772 367.567 147.788C371.675 150.752 375.679 152.234 379.579 152.234ZM416.392 86.558L409.138 85.31C408.93 85.206 408.774 85.128 408.67 85.076C408.566 84.972 408.514 84.842 408.514 84.686C408.514 84.582 408.566 84.504 408.67 84.452C408.774 84.348 408.852 84.296 408.904 84.296H416.08C416.548 84.296 416.886 84.244 417.094 84.14C417.354 83.984 417.562 83.75 417.718 83.438L428.872 69.242C429.132 69.034 429.366 68.878 429.574 68.774C429.782 68.618 429.99 68.54 430.198 68.54C430.406 68.54 430.562 68.618 430.666 68.774C430.822 68.878 430.9 69.086 430.9 69.398V136.322C430.9 140.326 431.68 143.316 433.24 145.292C434.8 147.216 436.932 148.178 439.636 148.178C440.676 148.178 441.664 148.048 442.6 147.788C443.536 147.476 444.394 147.034 445.174 146.462C445.954 145.838 446.656 145.058 447.279 144.122C447.904 143.134 448.424 141.964 448.84 140.612C448.944 140.352 449.074 140.248 449.23 140.3C449.438 140.352 449.49 140.534 449.386 140.846C448.554 143.654 447.462 145.994 446.11 147.866C444.758 149.686 443.094 151.038 441.118 151.922C439.142 152.806 436.802 153.248 434.098 153.248C428.898 153.248 424.842 152 421.93 149.504C419.018 147.008 417.562 143.16 417.562 137.96V88.04C417.562 87.624 417.484 87.286 417.328 87.026C417.172 86.766 416.86 86.61 416.392 86.558ZM426.376 85.622L426.766 84.296H448.84C449.1 84.296 449.256 84.348 449.308 84.452C449.412 84.504 449.464 84.608 449.464 84.764C449.464 85.024 449.308 85.232 448.996 85.388C448.736 85.544 448.346 85.622 447.826 85.622H426.376ZM460.114 86.558L452.86 85.31C452.652 85.206 452.496 85.128 452.392 85.076C452.288 84.972 452.236 84.842 452.236 84.686C452.236 84.582 452.288 84.504 452.392 84.452C452.496 84.348 452.574 84.296 452.626 84.296H459.802C460.27 84.296 460.608 84.244 460.816 84.14C461.076 83.984 461.284 83.75 461.44 83.438L472.594 69.242C472.854 69.034 473.088 68.878 473.296 68.774C473.504 68.618 473.712 68.54 473.92 68.54C474.128 68.54 474.284 68.618 474.388 68.774C474.544 68.878 474.622 69.086 474.622 69.398V136.322C474.622 140.326 475.402 143.316 476.962 145.292C478.522 147.216 480.654 148.178 483.358 148.178C484.398 148.178 485.386 148.048 486.322 147.788C487.258 147.476 488.116 147.034 488.896 146.462C489.676 145.838 490.378 145.058 491.002 144.122C491.626 143.134 492.146 141.964 492.562 140.612C492.666 140.352 492.796 140.248 492.952 140.3C493.16 140.352 493.212 140.534 493.108 140.846C492.276 143.654 491.184 145.994 489.832 147.866C488.48 149.686 486.816 151.038 484.84 151.922C482.864 152.806 480.524 153.248 477.82 153.248C472.62 153.248 468.564 152 465.652 149.504C462.74 147.008 461.284 143.16 461.284 137.96V88.04C461.284 87.624 461.206 87.286 461.05 87.026C460.894 86.766 460.582 86.61 460.114 86.558ZM470.098 85.622L470.488 84.296H492.562C492.822 84.296 492.978 84.348 493.03 84.452C493.134 84.504 493.186 84.608 493.186 84.764C493.186 85.024 493.03 85.232 492.718 85.388C492.458 85.544 492.068 85.622 491.548 85.622H470.098ZM503.837 86.558L496.583 85.31C496.375 85.206 496.219 85.128 496.115 85.076C496.011 84.972 495.959 84.842 495.959 84.686C495.959 84.582 496.011 84.504 496.115 84.452C496.219 84.348 496.297 84.296 496.349 84.296H503.525C503.993 84.296 504.331 84.244 504.539 84.14C504.799 83.984 505.007 83.75 505.163 83.438L516.317 69.242C516.577 69.034 516.811 68.878 517.019 68.774C517.227 68.618 517.435 68.54 517.643 68.54C517.851 68.54 518.007 68.618 518.111 68.774C518.267 68.878 518.345 69.086 518.345 69.398V136.322C518.345 140.326 519.125 143.316 520.685 145.292C522.245 147.216 524.377 148.178 527.081 148.178C528.121 148.178 529.109 148.048 530.045 147.788C530.981 147.476 531.839 147.034 532.619 146.462C533.399 145.838 534.101 145.058 534.725 144.122C535.349 143.134 535.869 141.964 536.285 140.612C536.389 140.352 536.519 140.248 536.675 140.3C536.883 140.352 536.935 140.534 536.831 140.846C535.999 143.654 534.907 145.994 533.555 147.866C532.203 149.686 530.539 151.038 528.563 151.922C526.587 152.806 524.247 153.248 521.543 153.248C516.343 153.248 512.287 152 509.375 149.504C506.463 147.008 505.007 143.16 505.007 137.96V88.04C505.007 87.624 504.929 87.286 504.773 87.026C504.617 86.766 504.305 86.61 503.837 86.558ZM513.821 85.622L514.211 84.296H536.285C536.545 84.296 536.701 84.348 536.753 84.452C536.857 84.504 536.909 84.608 536.909 84.764C536.909 85.024 536.753 85.232 536.441 85.388C536.181 85.544 535.791 85.622 535.271 85.622H513.821ZM551.771 153.248C550.159 153.248 548.703 152.832 547.403 152C546.103 151.168 545.063 150.05 544.283 148.646C543.555 147.19 543.191 145.604 543.191 143.888C543.191 142.224 543.555 140.69 544.283 139.286C545.063 137.83 546.103 136.686 547.403 135.854C548.755 135.022 550.211 134.606 551.771 134.606C553.435 134.606 554.917 135.048 556.217 135.932C557.569 136.764 558.609 137.882 559.337 139.286C560.117 140.69 560.507 142.224 560.507 143.888C560.507 145.604 560.117 147.19 559.337 148.646C558.557 150.05 557.517 151.168 556.217 152C554.917 152.832 553.435 153.248 551.771 153.248ZM625.77 99.896C625.77 102.08 625.146 103.848 623.898 105.2C622.702 106.552 621.038 107.228 618.906 107.228C616.774 107.228 615.058 106.552 613.758 105.2C612.458 103.796 611.808 101.82 611.808 99.272V94.67C611.808 91.342 610.768 88.69 608.688 86.714C606.66 84.686 603.826 83.672 600.186 83.672C596.442 83.672 593.192 84.894 590.436 87.338C587.68 89.73 585.548 93.084 584.04 97.4C582.532 101.716 581.778 106.76 581.778 112.532C581.778 119.448 582.792 125.298 584.82 130.082C586.9 134.866 589.708 138.48 593.244 140.924C596.832 143.368 600.862 144.59 605.334 144.59C610.17 144.59 614.33 143.42 617.814 141.08C621.298 138.688 623.742 135.022 625.146 130.082C625.198 129.926 625.25 129.822 625.302 129.77C625.406 129.666 625.51 129.614 625.614 129.614C625.718 129.666 625.796 129.744 625.848 129.848C625.9 129.952 625.9 130.082 625.848 130.238C624.756 135.23 622.936 139.442 620.388 142.874C617.84 146.306 614.694 148.932 610.95 150.752C607.258 152.52 603.072 153.404 598.392 153.404C592.776 153.404 587.706 152.104 583.182 149.504C578.71 146.904 575.148 143.082 572.496 138.038C569.896 132.942 568.596 126.676 568.596 119.24C568.596 112.428 569.974 106.266 572.73 100.754C575.486 95.19 579.334 90.77 584.274 87.494C589.214 84.218 594.934 82.58 601.434 82.58C606.634 82.58 611.028 83.36 614.616 84.92C618.256 86.428 621.012 88.508 622.884 91.16C624.808 93.76 625.77 96.672 625.77 99.896ZM666.072 82.736C672.624 82.736 678.448 84.244 683.544 87.26C688.64 90.276 692.67 94.462 695.634 99.818C698.598 105.174 700.08 111.362 700.08 118.382C700.08 125.35 698.572 131.486 695.556 136.79C692.54 142.042 688.432 146.15 683.232 149.114C678.032 152.078 672.052 153.56 665.292 153.56C658.74 153.56 652.916 152.078 647.82 149.114C642.776 146.15 638.798 142.042 635.886 136.79C633.026 131.486 631.596 125.35 631.596 118.382C631.596 111.414 633.052 105.252 635.964 99.896C638.876 94.54 642.906 90.354 648.054 87.338C653.254 84.27 659.26 82.736 666.072 82.736ZM669.66 152.39C673.508 152.078 676.732 150.492 679.332 147.632C681.984 144.72 683.856 140.638 684.948 135.386C686.04 130.082 686.196 123.712 685.416 116.276C684.636 108.788 683.18 102.574 681.048 97.634C678.916 92.694 676.238 89.08 673.014 86.792C669.79 84.504 666.124 83.516 662.016 83.828C657.96 84.192 654.606 85.856 651.954 88.82C649.354 91.784 647.56 95.892 646.572 101.144C645.636 106.396 645.532 112.688 646.26 120.02C647.04 127.248 648.522 133.358 650.706 138.35C652.89 143.29 655.594 146.956 658.818 149.348C662.094 151.688 665.708 152.702 669.66 152.39ZM728.062 83.906V148.1C728.062 148.672 728.218 149.166 728.53 149.582C728.894 149.946 729.388 150.18 730.012 150.284L734.926 151.064C735.394 151.064 735.628 151.22 735.628 151.532C735.628 151.844 735.42 152 735.004 152H707.08C706.924 152 706.794 151.948 706.69 151.844C706.586 151.74 706.534 151.636 706.534 151.532C706.534 151.48 706.586 151.402 706.69 151.298C706.846 151.194 707.028 151.116 707.236 151.064L712.384 150.284C713.06 150.128 713.528 149.894 713.788 149.582C714.1 149.218 714.256 148.802 714.256 148.334V90.536C714.256 90.276 714.178 90.068 714.022 89.912C713.918 89.704 713.71 89.6 713.398 89.6H707.158C707.054 89.6 706.924 89.548 706.768 89.444C706.664 89.34 706.612 89.236 706.612 89.132C706.612 88.976 706.664 88.846 706.768 88.742C706.924 88.638 707.106 88.56 707.314 88.508L726.112 83.282C726.424 83.126 726.658 83.048 726.814 83.048C727.022 83.048 727.204 83.048 727.36 83.048C727.62 83.048 727.802 83.152 727.906 83.36C728.01 83.516 728.062 83.698 728.062 83.906ZM726.814 98.18L726.19 97.634L728.764 95.216C733.912 90.38 738.462 87.104 742.414 85.388C746.366 83.62 750.136 82.736 753.724 82.736C758.976 82.736 763.292 84.374 766.672 87.65C770.052 90.874 771.742 95.918 771.742 102.782V147.788C771.742 148.568 771.95 149.192 772.366 149.66C772.782 150.076 773.38 150.362 774.16 150.518L777.904 151.064C778.32 151.168 778.528 151.324 778.528 151.532C778.528 151.844 778.268 152 777.748 152H750.76C750.344 152 750.136 151.844 750.136 151.532C750.136 151.22 750.396 151.064 750.916 151.064L755.674 150.362C756.662 150.154 757.312 149.764 757.624 149.192C757.936 148.568 758.092 147.892 758.092 147.164V104.186C758.092 99.09 756.844 95.268 754.348 92.72C751.852 90.12 748.628 88.82 744.676 88.82C742.076 88.82 739.528 89.366 737.032 90.458C734.588 91.498 732.04 93.292 729.388 95.84L726.814 98.18ZM769.87 98.18L769.246 97.634L771.586 94.982C775.798 90.51 779.62 87.364 783.052 85.544C786.484 83.672 790.046 82.736 793.738 82.736C798.574 82.736 802.474 84.374 805.438 87.65C808.454 90.874 810.43 95.944 811.366 102.86L817.45 147.71C817.554 148.49 817.814 149.14 818.23 149.66C818.646 150.128 819.244 150.44 820.024 150.596L823.69 151.142C823.898 151.142 824.028 151.194 824.08 151.298C824.184 151.35 824.236 151.428 824.236 151.532C824.236 151.688 824.184 151.818 824.08 151.922C824.028 151.974 823.898 152 823.69 152H795.922C795.506 152 795.298 151.844 795.298 151.532C795.298 151.324 795.558 151.168 796.078 151.064L800.836 150.362C801.824 150.206 802.5 149.816 802.864 149.192C803.228 148.568 803.358 147.84 803.254 147.008L797.716 104.186C796.988 99.09 795.636 95.268 793.66 92.72C791.736 90.12 788.98 88.82 785.392 88.82C783.208 88.82 781.05 89.392 778.918 90.536C776.786 91.628 774.55 93.318 772.21 95.606L769.87 98.18Z" fill="#151319"/>
<path d="M373.551 173.143C372.797 173.143 372.129 172.983 371.549 172.662C370.977 172.341 370.526 171.899 370.197 171.336C369.876 170.764 369.716 170.114 369.716 169.386V163.822H371.77V169.503C371.77 169.867 371.848 170.183 372.004 170.452C372.16 170.721 372.372 170.929 372.641 171.076C372.918 171.215 373.221 171.284 373.551 171.284C373.897 171.284 374.201 171.215 374.461 171.076C374.721 170.929 374.924 170.725 375.072 170.465C375.228 170.196 375.306 169.88 375.306 169.516V163.822H377.36V169.399C377.36 170.127 377.199 170.773 376.879 171.336C376.558 171.899 376.112 172.341 375.54 172.662C374.968 172.983 374.305 173.143 373.551 173.143ZM378.987 173V163.822H381.028V173H378.987ZM386.649 173V171.206H388.924C389.478 171.206 389.964 171.098 390.38 170.881C390.796 170.656 391.116 170.331 391.342 169.906C391.567 169.481 391.68 168.979 391.68 168.398C391.68 167.817 391.563 167.319 391.329 166.903C391.103 166.487 390.783 166.166 390.367 165.941C389.959 165.716 389.478 165.603 388.924 165.603H386.584V163.822H388.95C389.643 163.822 390.28 163.935 390.861 164.16C391.45 164.377 391.961 164.693 392.395 165.109C392.837 165.516 393.175 166.002 393.409 166.565C393.651 167.12 393.773 167.735 393.773 168.411C393.773 169.078 393.651 169.694 393.409 170.257C393.175 170.82 392.841 171.306 392.408 171.713C391.974 172.12 391.463 172.437 390.874 172.662C390.293 172.887 389.66 173 388.976 173H386.649ZM385.271 173V163.822H387.312V173H385.271ZM395.072 173V163.822H397.113V173H395.072ZM396.632 173V171.232H401.663V173H396.632ZM396.632 169.165V167.462H401.208V169.165H396.632ZM396.632 165.577V163.822H401.598V165.577H396.632ZM405.597 173.143C404.843 173.143 404.193 173.022 403.647 172.779C403.11 172.528 402.616 172.151 402.165 171.648L403.491 170.335C403.786 170.673 404.111 170.937 404.466 171.128C404.83 171.31 405.25 171.401 405.727 171.401C406.16 171.401 406.494 171.323 406.728 171.167C406.971 171.011 407.092 170.794 407.092 170.517C407.092 170.266 407.014 170.062 406.858 169.906C406.702 169.75 406.494 169.616 406.234 169.503C405.983 169.39 405.701 169.282 405.389 169.178C405.086 169.074 404.782 168.957 404.479 168.827C404.176 168.688 403.894 168.519 403.634 168.32C403.383 168.112 403.179 167.856 403.023 167.553C402.867 167.241 402.789 166.851 402.789 166.383C402.789 165.82 402.923 165.334 403.192 164.927C403.469 164.52 403.851 164.212 404.336 164.004C404.821 163.787 405.38 163.679 406.013 163.679C406.654 163.679 407.239 163.792 407.768 164.017C408.305 164.242 408.747 164.55 409.094 164.94L407.768 166.253C407.491 165.967 407.209 165.755 406.923 165.616C406.646 165.477 406.329 165.408 405.974 165.408C405.619 165.408 405.337 165.477 405.129 165.616C404.921 165.746 404.817 165.937 404.817 166.188C404.817 166.422 404.895 166.613 405.051 166.76C405.207 166.899 405.411 167.02 405.662 167.124C405.922 167.228 406.204 167.332 406.507 167.436C406.819 167.54 407.127 167.661 407.43 167.8C407.733 167.939 408.011 168.116 408.262 168.333C408.522 168.541 408.73 168.81 408.886 169.139C409.042 169.46 409.12 169.858 409.12 170.335C409.12 171.21 408.808 171.899 408.184 172.402C407.56 172.896 406.698 173.143 405.597 173.143ZM410.42 173V163.822H412.461V173H410.42ZM418.558 173.143C417.89 173.143 417.262 173.022 416.673 172.779C416.092 172.536 415.585 172.203 415.152 171.778C414.718 171.345 414.376 170.842 414.125 170.27C413.882 169.689 413.761 169.065 413.761 168.398C413.761 167.731 413.886 167.111 414.138 166.539C414.389 165.967 414.736 165.469 415.178 165.044C415.628 164.611 416.153 164.277 416.751 164.043C417.349 163.8 417.99 163.679 418.675 163.679C419.463 163.679 420.178 163.822 420.82 164.108C421.47 164.394 422.007 164.788 422.432 165.291L421.041 166.682C420.746 166.301 420.399 166.015 420.001 165.824C419.602 165.633 419.151 165.538 418.649 165.538C418.111 165.538 417.63 165.659 417.206 165.902C416.781 166.136 416.447 166.47 416.205 166.903C415.971 167.328 415.854 167.826 415.854 168.398C415.854 168.97 415.971 169.473 416.205 169.906C416.439 170.339 416.759 170.677 417.167 170.92C417.574 171.163 418.042 171.284 418.571 171.284C419.108 171.284 419.563 171.184 419.936 170.985C420.317 170.777 420.607 170.482 420.807 170.101C421.015 169.711 421.119 169.239 421.119 168.684L422.471 169.594L418.376 169.529V167.8H423.199V168.099C423.199 169.2 422.999 170.127 422.601 170.881C422.211 171.626 421.665 172.19 420.963 172.571C420.269 172.952 419.468 173.143 418.558 173.143ZM424.436 173V163.822H425.866L426.477 165.655V173H424.436ZM430.767 173L425.359 166.071L425.866 163.822L431.274 170.751L430.767 173ZM430.767 173L430.221 171.167V163.822H432.262V173H430.767ZM434.033 173V163.822H436.074V173H434.033ZM435.593 173V171.232H440.624V173H435.593ZM435.593 169.165V167.462H440.169V169.165H435.593ZM435.593 165.577V163.822H440.559V165.577H435.593ZM443.591 169.217V167.709H445.528C445.936 167.709 446.248 167.605 446.464 167.397C446.69 167.189 446.802 166.907 446.802 166.552C446.802 166.223 446.694 165.95 446.477 165.733C446.261 165.516 445.949 165.408 445.541 165.408H443.591V163.822H445.775C446.382 163.822 446.915 163.939 447.374 164.173C447.834 164.398 448.193 164.715 448.453 165.122C448.713 165.529 448.843 165.997 448.843 166.526C448.843 167.063 448.713 167.536 448.453 167.943C448.193 168.342 447.829 168.654 447.361 168.879C446.893 169.104 446.343 169.217 445.71 169.217H443.591ZM442.031 173V163.822H444.072V173H442.031ZM447.023 173L444.163 169.048L446.035 168.541L449.441 173H447.023ZM460.361 173.143C459.607 173.143 458.94 172.983 458.359 172.662C457.787 172.341 457.336 171.899 457.007 171.336C456.686 170.764 456.526 170.114 456.526 169.386V163.822H458.58V169.503C458.58 169.867 458.658 170.183 458.814 170.452C458.97 170.721 459.182 170.929 459.451 171.076C459.728 171.215 460.032 171.284 460.361 171.284C460.708 171.284 461.011 171.215 461.271 171.076C461.531 170.929 461.735 170.725 461.882 170.465C462.038 170.196 462.116 169.88 462.116 169.516V163.822H464.17V169.399C464.17 170.127 464.01 170.773 463.689 171.336C463.368 171.899 462.922 172.341 462.35 172.662C461.778 172.983 461.115 173.143 460.361 173.143ZM471.393 173L468.832 168.905H468.585L465.049 163.822H467.48L470.002 167.67H470.249L473.785 173H471.393ZM464.88 173L468.273 168.086L469.846 168.97L467.207 173H464.88ZM470.327 168.671L468.754 167.787L471.302 163.822H473.629L470.327 168.671ZM478.715 173V171.206H480.99C481.545 171.206 482.03 171.098 482.446 170.881C482.862 170.656 483.183 170.331 483.408 169.906C483.633 169.481 483.746 168.979 483.746 168.398C483.746 167.817 483.629 167.319 483.395 166.903C483.17 166.487 482.849 166.166 482.433 165.941C482.026 165.716 481.545 165.603 480.99 165.603H478.65V163.822H481.016C481.709 163.822 482.346 163.935 482.927 164.16C483.516 164.377 484.028 164.693 484.461 165.109C484.903 165.516 485.241 166.002 485.475 166.565C485.718 167.12 485.839 167.735 485.839 168.411C485.839 169.078 485.718 169.694 485.475 170.257C485.241 170.82 484.907 171.306 484.474 171.713C484.041 172.12 483.529 172.437 482.94 172.662C482.359 172.887 481.727 173 481.042 173H478.715ZM477.337 173V163.822H479.378V173H477.337ZM487.138 173V163.822H489.179V173H487.138ZM488.698 173V171.232H493.729V173H488.698ZM488.698 169.165V167.462H493.274V169.165H488.698ZM488.698 165.577V163.822H493.664V165.577H488.698ZM497.663 173.143C496.909 173.143 496.259 173.022 495.713 172.779C495.176 172.528 494.682 172.151 494.231 171.648L495.557 170.335C495.852 170.673 496.177 170.937 496.532 171.128C496.896 171.31 497.317 171.401 497.793 171.401C498.227 171.401 498.56 171.323 498.794 171.167C499.037 171.011 499.158 170.794 499.158 170.517C499.158 170.266 499.08 170.062 498.924 169.906C498.768 169.75 498.56 169.616 498.3 169.503C498.049 169.39 497.767 169.282 497.455 169.178C497.152 169.074 496.849 168.957 496.545 168.827C496.242 168.688 495.96 168.519 495.7 168.32C495.449 168.112 495.245 167.856 495.089 167.553C494.933 167.241 494.855 166.851 494.855 166.383C494.855 165.82 494.99 165.334 495.258 164.927C495.536 164.52 495.917 164.212 496.402 164.004C496.888 163.787 497.447 163.679 498.079 163.679C498.721 163.679 499.306 163.792 499.834 164.017C500.372 164.242 500.814 164.55 501.16 164.94L499.834 166.253C499.557 165.967 499.275 165.755 498.989 165.616C498.712 165.477 498.396 165.408 498.04 165.408C497.685 165.408 497.403 165.477 497.195 165.616C496.987 165.746 496.883 165.937 496.883 166.188C496.883 166.422 496.961 166.613 497.117 166.76C497.273 166.899 497.477 167.02 497.728 167.124C497.988 167.228 498.27 167.332 498.573 167.436C498.885 167.54 499.193 167.661 499.496 167.8C499.8 167.939 500.077 168.116 500.328 168.333C500.588 168.541 500.796 168.81 500.952 169.139C501.108 169.46 501.186 169.858 501.186 170.335C501.186 171.21 500.874 171.899 500.25 172.402C499.626 172.896 498.764 173.143 497.663 173.143ZM502.487 173V163.822H504.528V173H502.487ZM510.624 173.143C509.957 173.143 509.328 173.022 508.739 172.779C508.158 172.536 507.651 172.203 507.218 171.778C506.785 171.345 506.442 170.842 506.191 170.27C505.948 169.689 505.827 169.065 505.827 168.398C505.827 167.731 505.953 167.111 506.204 166.539C506.455 165.967 506.802 165.469 507.244 165.044C507.695 164.611 508.219 164.277 508.817 164.043C509.415 163.8 510.056 163.679 510.741 163.679C511.53 163.679 512.245 163.822 512.886 164.108C513.536 164.394 514.073 164.788 514.498 165.291L513.107 166.682C512.812 166.301 512.466 166.015 512.067 165.824C511.668 165.633 511.218 165.538 510.715 165.538C510.178 165.538 509.697 165.659 509.272 165.902C508.847 166.136 508.514 166.47 508.271 166.903C508.037 167.328 507.92 167.826 507.92 168.398C507.92 168.97 508.037 169.473 508.271 169.906C508.505 170.339 508.826 170.677 509.233 170.92C509.64 171.163 510.108 171.284 510.637 171.284C511.174 171.284 511.629 171.184 512.002 170.985C512.383 170.777 512.674 170.482 512.873 170.101C513.081 169.711 513.185 169.239 513.185 168.684L514.537 169.594L510.442 169.529V167.8H515.265V168.099C515.265 169.2 515.066 170.127 514.667 170.881C514.277 171.626 513.731 172.19 513.029 172.571C512.336 172.952 511.534 173.143 510.624 173.143ZM516.502 173V163.822H517.932L518.543 165.655V173H516.502ZM522.833 173L517.425 166.071L517.932 163.822L523.34 170.751L522.833 173ZM522.833 173L522.287 171.167V163.822H524.328V173H522.833ZM526.1 173V163.822H528.141V173H526.1ZM527.66 173V171.232H532.691V173H527.66ZM527.66 169.165V167.462H532.236V169.165H527.66ZM527.66 165.577V163.822H532.626V165.577H527.66ZM535.658 169.217V167.709H537.595C538.002 167.709 538.314 167.605 538.531 167.397C538.756 167.189 538.869 166.907 538.869 166.552C538.869 166.223 538.761 165.95 538.544 165.733C538.327 165.516 538.015 165.408 537.608 165.408H535.658V163.822H537.842C538.449 163.822 538.982 163.939 539.441 164.173C539.9 164.398 540.26 164.715 540.52 165.122C540.78 165.529 540.91 165.997 540.91 166.526C540.91 167.063 540.78 167.536 540.52 167.943C540.26 168.342 539.896 168.654 539.428 168.879C538.96 169.104 538.41 169.217 537.777 169.217H535.658ZM534.098 173V163.822H536.139V173H534.098ZM539.09 173L536.23 169.048L538.102 168.541L541.508 173H539.09Z" fill="#00D0DD"/>
<path d="M450.33 174.56L451.279 172.792L451.864 172.623C451.803 172.753 451.73 172.861 451.643 172.948C451.556 173.026 451.457 173.065 451.344 173.065C451.093 173.065 450.863 172.961 450.655 172.753C450.447 172.545 450.343 172.285 450.343 171.973C450.343 171.635 450.456 171.345 450.681 171.102C450.915 170.859 451.201 170.738 451.539 170.738C451.86 170.738 452.137 170.859 452.371 171.102C452.614 171.336 452.735 171.626 452.735 171.973C452.735 172.112 452.709 172.272 452.657 172.454C452.605 172.636 452.501 172.874 452.345 173.169L451.292 175.093L450.33 174.56ZM542.396 174.56L543.345 172.792L543.93 172.623C543.87 172.753 543.796 172.861 543.709 172.948C543.623 173.026 543.523 173.065 543.41 173.065C543.159 173.065 542.929 172.961 542.721 172.753C542.513 172.545 542.409 172.285 542.409 171.973C542.409 171.635 542.522 171.345 542.747 171.102C542.981 170.859 543.267 170.738 543.605 170.738C543.926 170.738 544.203 170.859 544.437 171.102C544.68 171.336 544.801 171.626 544.801 171.973C544.801 172.112 544.775 172.272 544.723 172.454C544.671 172.636 544.567 172.874 544.411 173.169L543.358 175.093L542.396 174.56ZM553.065 173.143C552.397 173.143 551.769 173.022 551.18 172.779C550.599 172.536 550.092 172.203 549.659 171.778C549.225 171.345 548.883 170.842 548.632 170.27C548.389 169.689 548.268 169.065 548.268 168.398C548.268 167.731 548.393 167.111 548.645 166.539C548.896 165.967 549.243 165.469 549.685 165.044C550.135 164.611 550.66 164.277 551.258 164.043C551.856 163.8 552.497 163.679 553.182 163.679C553.97 163.679 554.685 163.822 555.327 164.108C555.977 164.394 556.514 164.788 556.939 165.291L555.548 166.682C555.253 166.301 554.906 166.015 554.508 165.824C554.109 165.633 553.658 165.538 553.156 165.538C552.618 165.538 552.137 165.659 551.713 165.902C551.288 166.136 550.954 166.47 550.712 166.903C550.478 167.328 550.361 167.826 550.361 168.398C550.361 168.97 550.478 169.473 550.712 169.906C550.946 170.339 551.266 170.677 551.674 170.92C552.081 171.163 552.549 171.284 553.078 171.284C553.615 171.284 554.07 171.184 554.443 170.985C554.824 170.777 555.114 170.482 555.314 170.101C555.522 169.711 555.626 169.239 555.626 168.684L556.978 169.594L552.883 169.529V167.8H557.706V168.099C557.706 169.2 557.506 170.127 557.108 170.881C556.718 171.626 556.172 172.19 555.47 172.571C554.776 172.952 553.975 173.143 553.065 173.143ZM560.503 169.217V167.709H562.44C562.847 167.709 563.159 167.605 563.376 167.397C563.601 167.189 563.714 166.907 563.714 166.552C563.714 166.223 563.605 165.95 563.389 165.733C563.172 165.516 562.86 165.408 562.453 165.408H560.503V163.822H562.687C563.293 163.822 563.826 163.939 564.286 164.173C564.745 164.398 565.105 164.715 565.365 165.122C565.625 165.529 565.755 165.997 565.755 166.526C565.755 167.063 565.625 167.536 565.365 167.943C565.105 168.342 564.741 168.654 564.273 168.879C563.805 169.104 563.254 169.217 562.622 169.217H560.503ZM558.943 173V163.822H560.984V173H558.943ZM563.935 173L561.075 169.048L562.947 168.541L566.353 173H563.935ZM566.264 173L569.904 163.822H571.75L575.351 173H573.193L570.437 165.382H571.178L568.383 173H566.264ZM568.331 171.336V169.672H573.336V171.336H568.331ZM577.882 169.659V168.073H579.858C580.11 168.073 580.339 168.021 580.547 167.917C580.755 167.813 580.92 167.661 581.041 167.462C581.163 167.263 581.223 167.02 581.223 166.734C581.223 166.457 581.163 166.218 581.041 166.019C580.92 165.82 580.755 165.668 580.547 165.564C580.339 165.46 580.11 165.408 579.858 165.408H577.882V163.822H580.157C580.738 163.822 581.262 163.939 581.73 164.173C582.198 164.407 582.567 164.745 582.835 165.187C583.113 165.62 583.251 166.136 583.251 166.734C583.251 167.332 583.113 167.852 582.835 168.294C582.567 168.727 582.198 169.065 581.73 169.308C581.262 169.542 580.738 169.659 580.157 169.659H577.882ZM576.322 173V163.822H578.363V173H576.322ZM584.397 173V163.822H586.438V173H584.397ZM590.078 173V163.822H592.132V173H590.078ZM585.619 169.165V167.397H590.754V169.165H585.619ZM593.893 173V163.822H595.934V173H593.893ZM602.056 173.143C601.372 173.143 600.735 173.026 600.145 172.792C599.565 172.549 599.053 172.211 598.611 171.778C598.178 171.345 597.84 170.842 597.597 170.27C597.355 169.689 597.233 169.065 597.233 168.398C597.233 167.731 597.355 167.111 597.597 166.539C597.84 165.958 598.178 165.456 598.611 165.031C599.045 164.606 599.552 164.277 600.132 164.043C600.722 163.8 601.359 163.679 602.043 163.679C602.771 163.679 603.417 163.796 603.98 164.03C604.552 164.264 605.051 164.585 605.475 164.992L604.11 166.37C603.868 166.11 603.573 165.906 603.226 165.759C602.888 165.612 602.494 165.538 602.043 165.538C601.645 165.538 601.276 165.607 600.938 165.746C600.609 165.876 600.323 166.067 600.08 166.318C599.846 166.569 599.66 166.873 599.521 167.228C599.391 167.583 599.326 167.973 599.326 168.398C599.326 168.831 599.391 169.226 599.521 169.581C599.66 169.936 599.846 170.24 600.08 170.491C600.323 170.742 600.609 170.937 600.938 171.076C601.276 171.215 601.645 171.284 602.043 171.284C602.511 171.284 602.919 171.21 603.265 171.063C603.612 170.916 603.911 170.712 604.162 170.452L605.54 171.83C605.098 172.237 604.591 172.558 604.019 172.792C603.456 173.026 602.802 173.143 602.056 173.143ZM610.518 173V171.206H612.793C613.348 171.206 613.833 171.098 614.249 170.881C614.665 170.656 614.986 170.331 615.211 169.906C615.436 169.481 615.549 168.979 615.549 168.398C615.549 167.817 615.432 167.319 615.198 166.903C614.973 166.487 614.652 166.166 614.236 165.941C613.829 165.716 613.348 165.603 612.793 165.603H610.453V163.822H612.819C613.512 163.822 614.149 163.935 614.73 164.16C615.319 164.377 615.831 164.693 616.264 165.109C616.706 165.516 617.044 166.002 617.278 166.565C617.521 167.12 617.642 167.735 617.642 168.411C617.642 169.078 617.521 169.694 617.278 170.257C617.044 170.82 616.71 171.306 616.277 171.713C615.844 172.12 615.332 172.437 614.743 172.662C614.162 172.887 613.53 173 612.845 173H610.518ZM609.14 173V163.822H611.181V173H609.14ZM618.941 173V163.822H620.982V173H618.941ZM620.501 173V171.232H625.532V173H620.501ZM620.501 169.165V167.462H625.077V169.165H620.501ZM620.501 165.577V163.822H625.467V165.577H620.501ZM629.466 173.143C628.712 173.143 628.062 173.022 627.516 172.779C626.979 172.528 626.485 172.151 626.034 171.648L627.36 170.335C627.655 170.673 627.98 170.937 628.335 171.128C628.699 171.31 629.12 171.401 629.596 171.401C630.03 171.401 630.363 171.323 630.597 171.167C630.84 171.011 630.961 170.794 630.961 170.517C630.961 170.266 630.883 170.062 630.727 169.906C630.571 169.75 630.363 169.616 630.103 169.503C629.852 169.39 629.57 169.282 629.258 169.178C628.955 169.074 628.652 168.957 628.348 168.827C628.045 168.688 627.763 168.519 627.503 168.32C627.252 168.112 627.048 167.856 626.892 167.553C626.736 167.241 626.658 166.851 626.658 166.383C626.658 165.82 626.793 165.334 627.061 164.927C627.339 164.52 627.72 164.212 628.205 164.004C628.691 163.787 629.25 163.679 629.882 163.679C630.524 163.679 631.109 163.792 631.637 164.017C632.175 164.242 632.617 164.55 632.963 164.94L631.637 166.253C631.36 165.967 631.078 165.755 630.792 165.616C630.515 165.477 630.199 165.408 629.843 165.408C629.488 165.408 629.206 165.477 628.998 165.616C628.79 165.746 628.686 165.937 628.686 166.188C628.686 166.422 628.764 166.613 628.92 166.76C629.076 166.899 629.28 167.02 629.531 167.124C629.791 167.228 630.073 167.332 630.376 167.436C630.688 167.54 630.996 167.661 631.299 167.8C631.603 167.939 631.88 168.116 632.131 168.333C632.391 168.541 632.599 168.81 632.755 169.139C632.911 169.46 632.989 169.858 632.989 170.335C632.989 171.21 632.677 171.899 632.053 172.402C631.429 172.896 630.567 173.143 629.466 173.143ZM634.289 173V163.822H636.33V173H634.289ZM642.427 173.143C641.76 173.143 641.131 173.022 640.542 172.779C639.961 172.536 639.454 172.203 639.021 171.778C638.588 171.345 638.245 170.842 637.994 170.27C637.751 169.689 637.63 169.065 637.63 168.398C637.63 167.731 637.756 167.111 638.007 166.539C638.258 165.967 638.605 165.469 639.047 165.044C639.498 164.611 640.022 164.277 640.62 164.043C641.218 163.8 641.859 163.679 642.544 163.679C643.333 163.679 644.048 163.822 644.689 164.108C645.339 164.394 645.876 164.788 646.301 165.291L644.91 166.682C644.615 166.301 644.269 166.015 643.87 165.824C643.471 165.633 643.021 165.538 642.518 165.538C641.981 165.538 641.5 165.659 641.075 165.902C640.65 166.136 640.317 166.47 640.074 166.903C639.84 167.328 639.723 167.826 639.723 168.398C639.723 168.97 639.84 169.473 640.074 169.906C640.308 170.339 640.629 170.677 641.036 170.92C641.443 171.163 641.911 171.284 642.44 171.284C642.977 171.284 643.432 171.184 643.805 170.985C644.186 170.777 644.477 170.482 644.676 170.101C644.884 169.711 644.988 169.239 644.988 168.684L646.34 169.594L642.245 169.529V167.8H647.068V168.099C647.068 169.2 646.869 170.127 646.47 170.881C646.08 171.626 645.534 172.19 644.832 172.571C644.139 172.952 643.337 173.143 642.427 173.143ZM648.305 173V163.822H649.735L650.346 165.655V173H648.305ZM654.636 173L649.228 166.071L649.735 163.822L655.143 170.751L654.636 173ZM654.636 173L654.09 171.167V163.822H656.131V173H654.636ZM657.903 173V163.822H659.944V173H657.903ZM659.463 173V171.232H664.494V173H659.463ZM659.463 169.165V167.462H664.039V169.165H659.463ZM659.463 165.577V163.822H664.429V165.577H659.463ZM667.461 169.217V167.709H669.398C669.805 167.709 670.117 167.605 670.334 167.397C670.559 167.189 670.672 166.907 670.672 166.552C670.672 166.223 670.563 165.95 670.347 165.733C670.13 165.516 669.818 165.408 669.411 165.408H667.461V163.822H669.645C670.251 163.822 670.784 163.939 671.244 164.173C671.703 164.398 672.063 164.715 672.323 165.122C672.583 165.529 672.713 165.997 672.713 166.526C672.713 167.063 672.583 167.536 672.323 167.943C672.063 168.342 671.699 168.654 671.231 168.879C670.763 169.104 670.212 169.217 669.58 169.217H667.461ZM665.901 173V163.822H667.942V173H665.901ZM670.893 173L668.033 169.048L669.905 168.541L673.311 173H670.893ZM674.199 174.56L675.148 172.792L675.733 172.623C675.672 172.753 675.599 172.861 675.512 172.948C675.425 173.026 675.326 173.065 675.213 173.065C674.962 173.065 674.732 172.961 674.524 172.753C674.316 172.545 674.212 172.285 674.212 171.973C674.212 171.635 674.325 171.345 674.55 171.102C674.784 170.859 675.07 170.738 675.408 170.738C675.729 170.738 676.006 170.859 676.24 171.102C676.483 171.336 676.604 171.626 676.604 171.973C676.604 172.112 676.578 172.272 676.526 172.454C676.474 172.636 676.37 172.874 676.214 173.169L675.161 175.093L674.199 174.56ZM680.538 173V163.822H682.579V173H680.538ZM684.347 173V163.822H686.388V173H684.347ZM685.92 173V171.206H690.457V173H685.92ZM691.634 173V163.822H693.675V173H691.634ZM693.207 173V171.206H697.744V173H693.207ZM702.296 173.143C701.542 173.143 700.874 172.983 700.294 172.662C699.722 172.341 699.271 171.899 698.942 171.336C698.621 170.764 698.461 170.114 698.461 169.386V163.822H700.515V169.503C700.515 169.867 700.593 170.183 700.749 170.452C700.905 170.721 701.117 170.929 701.386 171.076C701.663 171.215 701.966 171.284 702.296 171.284C702.642 171.284 702.946 171.215 703.206 171.076C703.466 170.929 703.669 170.725 703.817 170.465C703.973 170.196 704.051 169.88 704.051 169.516V163.822H706.105V169.399C706.105 170.127 705.944 170.773 705.624 171.336C705.303 171.899 704.857 172.341 704.285 172.662C703.713 172.983 703.05 173.143 702.296 173.143ZM710.386 173.143C709.632 173.143 708.982 173.022 708.436 172.779C707.899 172.528 707.405 172.151 706.954 171.648L708.28 170.335C708.575 170.673 708.9 170.937 709.255 171.128C709.619 171.31 710.039 171.401 710.516 171.401C710.949 171.401 711.283 171.323 711.517 171.167C711.76 171.011 711.881 170.794 711.881 170.517C711.881 170.266 711.803 170.062 711.647 169.906C711.491 169.75 711.283 169.616 711.023 169.503C710.772 169.39 710.49 169.282 710.178 169.178C709.875 169.074 709.571 168.957 709.268 168.827C708.965 168.688 708.683 168.519 708.423 168.32C708.172 168.112 707.968 167.856 707.812 167.553C707.656 167.241 707.578 166.851 707.578 166.383C707.578 165.82 707.712 165.334 707.981 164.927C708.258 164.52 708.64 164.212 709.125 164.004C709.61 163.787 710.169 163.679 710.802 163.679C711.443 163.679 712.028 163.792 712.557 164.017C713.094 164.242 713.536 164.55 713.883 164.94L712.557 166.253C712.28 165.967 711.998 165.755 711.712 165.616C711.435 165.477 711.118 165.408 710.763 165.408C710.408 165.408 710.126 165.477 709.918 165.616C709.71 165.746 709.606 165.937 709.606 166.188C709.606 166.422 709.684 166.613 709.84 166.76C709.996 166.899 710.2 167.02 710.451 167.124C710.711 167.228 710.993 167.332 711.296 167.436C711.608 167.54 711.916 167.661 712.219 167.8C712.522 167.939 712.8 168.116 713.051 168.333C713.311 168.541 713.519 168.81 713.675 169.139C713.831 169.46 713.909 169.858 713.909 170.335C713.909 171.21 713.597 171.899 712.973 172.402C712.349 172.896 711.487 173.143 710.386 173.143ZM717.115 173V163.952H719.156V173H717.115ZM714.242 165.603V163.822H722.029V165.603H714.242ZM724.729 169.217V167.709H726.666C727.073 167.709 727.385 167.605 727.602 167.397C727.827 167.189 727.94 166.907 727.94 166.552C727.94 166.223 727.832 165.95 727.615 165.733C727.398 165.516 727.086 165.408 726.679 165.408H724.729V163.822H726.913C727.52 163.822 728.053 163.939 728.512 164.173C728.971 164.398 729.331 164.715 729.591 165.122C729.851 165.529 729.981 165.997 729.981 166.526C729.981 167.063 729.851 167.536 729.591 167.943C729.331 168.342 728.967 168.654 728.499 168.879C728.031 169.104 727.481 169.217 726.848 169.217H724.729ZM723.169 173V163.822H725.21V173H723.169ZM728.161 173L725.301 169.048L727.173 168.541L730.579 173H728.161ZM730.491 173L734.131 163.822H735.977L739.578 173H737.42L734.664 165.382H735.405L732.61 173H730.491ZM732.558 171.336V169.672H737.563V171.336H732.558ZM741.77 173V163.952H743.811V173H741.77ZM738.897 165.603V163.822H746.684V165.603H738.897ZM751.722 173.156C751.029 173.156 750.387 173.035 749.798 172.792C749.217 172.549 748.706 172.211 748.264 171.778C747.822 171.345 747.48 170.842 747.237 170.27C746.994 169.689 746.873 169.065 746.873 168.398C746.873 167.722 746.994 167.098 747.237 166.526C747.48 165.954 747.818 165.456 748.251 165.031C748.684 164.598 749.191 164.264 749.772 164.03C750.361 163.787 751.003 163.666 751.696 163.666C752.381 163.666 753.013 163.787 753.594 164.03C754.183 164.264 754.695 164.598 755.128 165.031C755.57 165.456 755.912 165.958 756.155 166.539C756.398 167.111 756.519 167.735 756.519 168.411C756.519 169.078 756.398 169.702 756.155 170.283C755.912 170.855 755.574 171.358 755.141 171.791C754.708 172.216 754.196 172.549 753.607 172.792C753.026 173.035 752.398 173.156 751.722 173.156ZM751.696 171.297C752.242 171.297 752.719 171.176 753.126 170.933C753.542 170.69 753.863 170.352 754.088 169.919C754.313 169.477 754.426 168.97 754.426 168.398C754.426 167.965 754.361 167.575 754.231 167.228C754.101 166.873 753.915 166.569 753.672 166.318C753.429 166.058 753.139 165.863 752.801 165.733C752.472 165.594 752.103 165.525 751.696 165.525C751.15 165.525 750.669 165.646 750.253 165.889C749.846 166.123 749.529 166.457 749.304 166.89C749.079 167.315 748.966 167.817 748.966 168.398C748.966 168.831 749.031 169.226 749.161 169.581C749.291 169.936 749.473 170.244 749.707 170.504C749.95 170.755 750.24 170.95 750.578 171.089C750.916 171.228 751.289 171.297 751.696 171.297ZM759.375 169.217V167.709H761.312C761.719 167.709 762.031 167.605 762.248 167.397C762.473 167.189 762.586 166.907 762.586 166.552C762.586 166.223 762.477 165.95 762.261 165.733C762.044 165.516 761.732 165.408 761.325 165.408H759.375V163.822H761.559C762.165 163.822 762.698 163.939 763.158 164.173C763.617 164.398 763.977 164.715 764.237 165.122C764.497 165.529 764.627 165.997 764.627 166.526C764.627 167.063 764.497 167.536 764.237 167.943C763.977 168.342 763.613 168.654 763.145 168.879C762.677 169.104 762.126 169.217 761.494 169.217H759.375ZM757.815 173V163.822H759.856V173H757.815ZM762.807 173L759.947 169.048L761.819 168.541L765.225 173H762.807ZM766.113 174.56L767.062 172.792L767.647 172.623C767.586 172.753 767.513 172.861 767.426 172.948C767.339 173.026 767.24 173.065 767.127 173.065C766.876 173.065 766.646 172.961 766.438 172.753C766.23 172.545 766.126 172.285 766.126 171.973C766.126 171.635 766.239 171.345 766.464 171.102C766.698 170.859 766.984 170.738 767.322 170.738C767.643 170.738 767.92 170.859 768.154 171.102C768.397 171.336 768.518 171.626 768.518 171.973C768.518 172.112 768.492 172.272 768.44 172.454C768.388 172.636 768.284 172.874 768.128 173.169L767.075 175.093L766.113 174.56ZM772.452 173V163.822H774.493V173H772.452ZM778.133 173V163.822H780.187V173H778.133ZM773.674 169.165V167.397H778.809V169.165H773.674ZM785.64 173.143C784.886 173.143 784.219 172.983 783.638 172.662C783.066 172.341 782.616 171.899 782.286 171.336C781.966 170.764 781.805 170.114 781.805 169.386V163.822H783.859V169.503C783.859 169.867 783.937 170.183 784.093 170.452C784.249 170.721 784.462 170.929 784.73 171.076C785.008 171.215 785.311 171.284 785.64 171.284C785.987 171.284 786.29 171.215 786.55 171.076C786.81 170.929 787.014 170.725 787.161 170.465C787.317 170.196 787.395 169.88 787.395 169.516V163.822H789.449V169.399C789.449 170.127 789.289 170.773 788.968 171.336C788.648 171.899 788.201 172.341 787.629 172.662C787.057 172.983 786.394 173.143 785.64 173.143ZM791.076 173V163.822H792.532L796.146 169.451H795.405L799.006 163.822H800.475V173H798.434V167.267L798.798 167.358L796.445 171.024H795.093L792.753 167.358L793.104 167.267V173H791.076ZM801.547 173L805.187 163.822H807.033L810.634 173H808.476L805.72 165.382H806.461L803.666 173H801.547ZM803.614 171.336V169.672H808.619V171.336H803.614ZM811.605 173V163.822H813.035L813.646 165.655V173H811.605ZM817.936 173L812.528 166.071L813.035 163.822L818.443 170.751L817.936 173ZM817.936 173L817.39 171.167V163.822H819.431V173H817.936ZM821.02 174.56L821.969 172.792L822.554 172.623C822.494 172.753 822.42 172.861 822.333 172.948C822.247 173.026 822.147 173.065 822.034 173.065C821.783 173.065 821.553 172.961 821.345 172.753C821.137 172.545 821.033 172.285 821.033 171.973C821.033 171.635 821.146 171.345 821.371 171.102C821.605 170.859 821.891 170.738 822.229 170.738C822.55 170.738 822.827 170.859 823.061 171.102C823.304 171.336 823.425 171.626 823.425 171.973C823.425 172.112 823.399 172.272 823.347 172.454C823.295 172.636 823.191 172.874 823.035 173.169L821.982 175.093L821.02 174.56ZM484.652 189L481.701 179.822H483.729L485.887 186.881H485.094L487.2 179.822H488.799L490.905 186.881H490.125L492.27 179.822H494.285L491.334 189H489.735L487.616 181.941H488.37L486.251 189H484.652ZM495.39 189V179.822H497.431V189H495.39ZM496.95 189V187.232H501.981V189H496.95ZM496.95 185.165V183.462H501.526V185.165H496.95ZM496.95 181.577V179.822H501.916V181.577H496.95ZM504.948 189V187.414H507.106C507.505 187.414 507.817 187.297 508.042 187.063C508.267 186.829 508.38 186.543 508.38 186.205C508.38 185.971 508.328 185.763 508.224 185.581C508.12 185.399 507.973 185.256 507.782 185.152C507.6 185.048 507.375 184.996 507.106 184.996H504.948V183.449H506.937C507.275 183.449 507.548 183.367 507.756 183.202C507.964 183.029 508.068 182.769 508.068 182.422C508.068 182.084 507.964 181.833 507.756 181.668C507.548 181.495 507.275 181.408 506.937 181.408H504.948V179.822H507.327C507.916 179.822 508.415 179.93 508.822 180.147C509.238 180.364 509.554 180.654 509.771 181.018C509.988 181.382 510.096 181.785 510.096 182.227C510.096 182.79 509.914 183.267 509.55 183.657C509.186 184.047 508.649 184.316 507.938 184.463L507.99 183.774C508.761 183.921 509.355 184.22 509.771 184.671C510.196 185.122 510.408 185.676 510.408 186.335C510.408 186.838 510.282 187.293 510.031 187.7C509.788 188.099 509.433 188.415 508.965 188.649C508.506 188.883 507.951 189 507.301 189H504.948ZM503.388 189V179.822H505.403V189H503.388ZM515.57 189V187.206H517.845C518.399 187.206 518.885 187.098 519.301 186.881C519.717 186.656 520.037 186.331 520.263 185.906C520.488 185.481 520.601 184.979 520.601 184.398C520.601 183.817 520.484 183.319 520.25 182.903C520.024 182.487 519.704 182.166 519.288 181.941C518.88 181.716 518.399 181.603 517.845 181.603H515.505V179.822H517.871C518.564 179.822 519.201 179.935 519.782 180.16C520.371 180.377 520.882 180.693 521.316 181.109C521.758 181.516 522.096 182.002 522.33 182.565C522.572 183.12 522.694 183.735 522.694 184.411C522.694 185.078 522.572 185.694 522.33 186.257C522.096 186.82 521.762 187.306 521.329 187.713C520.895 188.12 520.384 188.437 519.795 188.662C519.214 188.887 518.581 189 517.897 189H515.57ZM514.192 189V179.822H516.233V189H514.192ZM523.992 189V179.822H526.033V189H523.992ZM525.552 189V187.232H530.583V189H525.552ZM525.552 185.165V183.462H530.128V185.165H525.552ZM525.552 181.577V179.822H530.518V181.577H525.552ZM534.673 189L531.137 179.822H533.321L536.012 187.245H535.115L537.845 179.822H540.003L536.428 189H534.673ZM541.08 189V179.822H543.121V189H541.08ZM542.64 189V187.232H547.671V189H542.64ZM542.64 185.165V183.462H547.216V185.165H542.64ZM542.64 181.577V179.822H547.606V181.577H542.64ZM549.078 189V179.822H551.119V189H549.078ZM550.651 189V187.206H555.188V189H550.651ZM560.239 189.156C559.545 189.156 558.904 189.035 558.315 188.792C557.734 188.549 557.223 188.211 556.781 187.778C556.339 187.345 555.996 186.842 555.754 186.27C555.511 185.689 555.39 185.065 555.39 184.398C555.39 183.722 555.511 183.098 555.754 182.526C555.996 181.954 556.334 181.456 556.768 181.031C557.201 180.598 557.708 180.264 558.289 180.03C558.878 179.787 559.519 179.666 560.213 179.666C560.897 179.666 561.53 179.787 562.111 180.03C562.7 180.264 563.211 180.598 563.645 181.031C564.087 181.456 564.429 181.958 564.672 182.539C564.914 183.111 565.036 183.735 565.036 184.411C565.036 185.078 564.914 185.702 564.672 186.283C564.429 186.855 564.091 187.358 563.658 187.791C563.224 188.216 562.713 188.549 562.124 188.792C561.543 189.035 560.915 189.156 560.239 189.156ZM560.213 187.297C560.759 187.297 561.235 187.176 561.643 186.933C562.059 186.69 562.379 186.352 562.605 185.919C562.83 185.477 562.943 184.97 562.943 184.398C562.943 183.965 562.878 183.575 562.748 183.228C562.618 182.873 562.431 182.569 562.189 182.318C561.946 182.058 561.656 181.863 561.318 181.733C560.988 181.594 560.62 181.525 560.213 181.525C559.667 181.525 559.186 181.646 558.77 181.889C558.362 182.123 558.046 182.457 557.821 182.89C557.595 183.315 557.483 183.817 557.483 184.398C557.483 184.831 557.548 185.226 557.678 185.581C557.808 185.936 557.99 186.244 558.224 186.504C558.466 186.755 558.757 186.95 559.095 187.089C559.433 187.228 559.805 187.297 560.213 187.297ZM567.891 185.659V184.073H569.867C570.119 184.073 570.348 184.021 570.556 183.917C570.764 183.813 570.929 183.661 571.05 183.462C571.172 183.263 571.232 183.02 571.232 182.734C571.232 182.457 571.172 182.218 571.05 182.019C570.929 181.82 570.764 181.668 570.556 181.564C570.348 181.46 570.119 181.408 569.867 181.408H567.891V179.822H570.166C570.747 179.822 571.271 179.939 571.739 180.173C572.207 180.407 572.576 180.745 572.844 181.187C573.122 181.62 573.26 182.136 573.26 182.734C573.26 183.332 573.122 183.852 572.844 184.294C572.576 184.727 572.207 185.065 571.739 185.308C571.271 185.542 570.747 185.659 570.166 185.659H567.891ZM566.331 189V179.822H568.372V189H566.331ZM574.405 189V179.822H576.446V189H574.405ZM575.965 189V187.232H580.996V189H575.965ZM575.965 185.165V183.462H580.541V185.165H575.965ZM575.965 181.577V179.822H580.931V181.577H575.965ZM583.964 185.217V183.709H585.901C586.308 183.709 586.62 183.605 586.837 183.397C587.062 183.189 587.175 182.907 587.175 182.552C587.175 182.223 587.066 181.95 586.85 181.733C586.633 181.516 586.321 181.408 585.914 181.408H583.964V179.822H586.148C586.754 179.822 587.287 179.939 587.747 180.173C588.206 180.398 588.566 180.715 588.826 181.122C589.086 181.529 589.216 181.997 589.216 182.526C589.216 183.063 589.086 183.536 588.826 183.943C588.566 184.342 588.202 184.654 587.734 184.879C587.266 185.104 586.715 185.217 586.083 185.217H583.964ZM582.404 189V179.822H584.445V189H582.404ZM587.396 189L584.536 185.048L586.408 184.541L589.814 189H587.396ZM590.702 190.56L591.651 188.792L592.236 188.623C592.175 188.753 592.102 188.861 592.015 188.948C591.928 189.026 591.829 189.065 591.716 189.065C591.465 189.065 591.235 188.961 591.027 188.753C590.819 188.545 590.715 188.285 590.715 187.973C590.715 187.635 590.828 187.345 591.053 187.102C591.287 186.859 591.573 186.738 591.911 186.738C592.232 186.738 592.509 186.859 592.743 187.102C592.986 187.336 593.107 187.626 593.107 187.973C593.107 188.112 593.081 188.272 593.029 188.454C592.977 188.636 592.873 188.874 592.717 189.169L591.664 191.093L590.702 190.56ZM595.984 189L599.624 179.822H601.47L605.071 189H602.913L600.157 181.382H600.898L598.103 189H595.984ZM598.051 187.336V185.672H603.056V187.336H598.051ZM607.602 185.659V184.073H609.578C609.83 184.073 610.059 184.021 610.267 183.917C610.475 183.813 610.64 183.661 610.761 183.462C610.883 183.263 610.943 183.02 610.943 182.734C610.943 182.457 610.883 182.218 610.761 182.019C610.64 181.82 610.475 181.668 610.267 181.564C610.059 181.46 609.83 181.408 609.578 181.408H607.602V179.822H609.877C610.458 179.822 610.982 179.939 611.45 180.173C611.918 180.407 612.287 180.745 612.555 181.187C612.833 181.62 612.971 182.136 612.971 182.734C612.971 183.332 612.833 183.852 612.555 184.294C612.287 184.727 611.918 185.065 611.45 185.308C610.982 185.542 610.458 185.659 609.877 185.659H607.602ZM606.042 189V179.822H608.083V189H606.042ZM615.676 185.659V184.073H617.652C617.904 184.073 618.133 184.021 618.341 183.917C618.549 183.813 618.714 183.661 618.835 183.462C618.957 183.263 619.017 183.02 619.017 182.734C619.017 182.457 618.957 182.218 618.835 182.019C618.714 181.82 618.549 181.668 618.341 181.564C618.133 181.46 617.904 181.408 617.652 181.408H615.676V179.822H617.951C618.532 179.822 619.056 179.939 619.524 180.173C619.992 180.407 620.361 180.745 620.629 181.187C620.907 181.62 621.045 182.136 621.045 182.734C621.045 183.332 620.907 183.852 620.629 184.294C620.361 184.727 619.992 185.065 619.524 185.308C619.056 185.542 618.532 185.659 617.951 185.659H615.676ZM614.116 189V179.822H616.157V189H614.116ZM625.905 189V187.206H628.18C628.734 187.206 629.22 187.098 629.636 186.881C630.052 186.656 630.372 186.331 630.598 185.906C630.823 185.481 630.936 184.979 630.936 184.398C630.936 183.817 630.819 183.319 630.585 182.903C630.359 182.487 630.039 182.166 629.623 181.941C629.215 181.716 628.734 181.603 628.18 181.603H625.84V179.822H628.206C628.899 179.822 629.536 179.935 630.117 180.16C630.706 180.377 631.217 180.693 631.651 181.109C632.093 181.516 632.431 182.002 632.665 182.565C632.907 183.12 633.029 183.735 633.029 184.411C633.029 185.078 632.907 185.694 632.665 186.257C632.431 186.82 632.097 187.306 631.664 187.713C631.23 188.12 630.719 188.437 630.13 188.662C629.549 188.887 628.916 189 628.232 189H625.905ZM624.527 189V179.822H626.568V189H624.527ZM634.327 189V179.822H636.368V189H634.327ZM635.887 189V187.232H640.918V189H635.887ZM635.887 185.165V183.462H640.463V185.165H635.887ZM635.887 181.577V179.822H640.853V181.577H635.887ZM645.008 189L641.472 179.822H643.656L646.347 187.245H645.45L648.18 179.822H650.338L646.763 189H645.008ZM651.415 189V179.822H653.456V189H651.415ZM652.975 189V187.232H658.006V189H652.975ZM652.975 185.165V183.462H657.551V185.165H652.975ZM652.975 181.577V179.822H657.941V181.577H652.975ZM659.413 189V179.822H661.454V189H659.413ZM660.986 189V187.206H665.523V189H660.986ZM670.574 189.156C669.88 189.156 669.239 189.035 668.65 188.792C668.069 188.549 667.558 188.211 667.116 187.778C666.674 187.345 666.331 186.842 666.089 186.27C665.846 185.689 665.725 185.065 665.725 184.398C665.725 183.722 665.846 183.098 666.089 182.526C666.331 181.954 666.669 181.456 667.103 181.031C667.536 180.598 668.043 180.264 668.624 180.03C669.213 179.787 669.854 179.666 670.548 179.666C671.232 179.666 671.865 179.787 672.446 180.03C673.035 180.264 673.546 180.598 673.98 181.031C674.422 181.456 674.764 181.958 675.007 182.539C675.249 183.111 675.371 183.735 675.371 184.411C675.371 185.078 675.249 185.702 675.007 186.283C674.764 186.855 674.426 187.358 673.993 187.791C673.559 188.216 673.048 188.549 672.459 188.792C671.878 189.035 671.25 189.156 670.574 189.156ZM670.548 187.297C671.094 187.297 671.57 187.176 671.978 186.933C672.394 186.69 672.714 186.352 672.94 185.919C673.165 185.477 673.278 184.97 673.278 184.398C673.278 183.965 673.213 183.575 673.083 183.228C672.953 182.873 672.766 182.569 672.524 182.318C672.281 182.058 671.991 181.863 671.653 181.733C671.323 181.594 670.955 181.525 670.548 181.525C670.002 181.525 669.521 181.646 669.105 181.889C668.697 182.123 668.381 182.457 668.156 182.89C667.93 183.315 667.818 183.817 667.818 184.398C667.818 184.831 667.883 185.226 668.013 185.581C668.143 185.936 668.325 186.244 668.559 186.504C668.801 186.755 669.092 186.95 669.43 187.089C669.768 187.228 670.14 187.297 670.548 187.297ZM678.226 185.659V184.073H680.202C680.454 184.073 680.683 184.021 680.891 183.917C681.099 183.813 681.264 183.661 681.385 183.462C681.507 183.263 681.567 183.02 681.567 182.734C681.567 182.457 681.507 182.218 681.385 182.019C681.264 181.82 681.099 181.668 680.891 181.564C680.683 181.46 680.454 181.408 680.202 181.408H678.226V179.822H680.501C681.082 179.822 681.606 179.939 682.074 180.173C682.542 180.407 682.911 180.745 683.179 181.187C683.457 181.62 683.595 182.136 683.595 182.734C683.595 183.332 683.457 183.852 683.179 184.294C682.911 184.727 682.542 185.065 682.074 185.308C681.606 185.542 681.082 185.659 680.501 185.659H678.226ZM676.666 189V179.822H678.707V189H676.666ZM684.74 189V179.822H686.781V189H684.74ZM686.3 189V187.232H691.331V189H686.3ZM686.3 185.165V183.462H690.876V185.165H686.3ZM686.3 181.577V179.822H691.266V181.577H686.3ZM694.298 185.217V183.709H696.235C696.643 183.709 696.955 183.605 697.171 183.397C697.397 183.189 697.509 182.907 697.509 182.552C697.509 182.223 697.401 181.95 697.184 181.733C696.968 181.516 696.656 181.408 696.248 181.408H694.298V179.822H696.482C697.089 179.822 697.622 179.939 698.081 180.173C698.541 180.398 698.9 180.715 699.16 181.122C699.42 181.529 699.55 181.997 699.55 182.526C699.55 183.063 699.42 183.536 699.16 183.943C698.9 184.342 698.536 184.654 698.068 184.879C697.6 185.104 697.05 185.217 696.417 185.217H694.298ZM692.738 189V179.822H694.779V189H692.738ZM697.73 189L694.87 185.048L696.742 184.541L700.148 189H697.73ZM701.037 190.56L701.986 188.792L702.571 188.623C702.51 188.753 702.437 188.861 702.35 188.948C702.263 189.026 702.164 189.065 702.051 189.065C701.8 189.065 701.57 188.961 701.362 188.753C701.154 188.545 701.05 188.285 701.05 187.973C701.05 187.635 701.163 187.345 701.388 187.102C701.622 186.859 701.908 186.738 702.246 186.738C702.567 186.738 702.844 186.859 703.078 187.102C703.321 187.336 703.442 187.626 703.442 187.973C703.442 188.112 703.416 188.272 703.364 188.454C703.312 188.636 703.208 188.874 703.052 189.169L701.999 191.093L701.037 190.56ZM711.705 189.143C711.038 189.143 710.41 189.022 709.82 188.779C709.24 188.536 708.733 188.203 708.299 187.778C707.866 187.345 707.524 186.842 707.272 186.27C707.03 185.689 706.908 185.065 706.908 184.398C706.908 183.731 707.034 183.111 707.285 182.539C707.537 181.967 707.883 181.469 708.325 181.044C708.776 180.611 709.3 180.277 709.898 180.043C710.496 179.8 711.138 179.679 711.822 179.679C712.611 179.679 713.326 179.822 713.967 180.108C714.617 180.394 715.155 180.788 715.579 181.291L714.188 182.682C713.894 182.301 713.547 182.015 713.148 181.824C712.75 181.633 712.299 181.538 711.796 181.538C711.259 181.538 710.778 181.659 710.353 181.902C709.929 182.136 709.595 182.47 709.352 182.903C709.118 183.328 709.001 183.826 709.001 184.398C709.001 184.97 709.118 185.473 709.352 185.906C709.586 186.339 709.907 186.677 710.314 186.92C710.722 187.163 711.19 187.284 711.718 187.284C712.256 187.284 712.711 187.184 713.083 186.985C713.465 186.777 713.755 186.482 713.954 186.101C714.162 185.711 714.266 185.239 714.266 184.684L715.618 185.594L711.523 185.529V183.8H716.346V184.099C716.346 185.2 716.147 186.127 715.748 186.881C715.358 187.626 714.812 188.19 714.11 188.571C713.417 188.952 712.615 189.143 711.705 189.143ZM716.501 189L720.141 179.822H721.987L725.588 189H723.43L720.674 181.382H721.415L718.62 189H716.501ZM718.568 187.336V185.672H723.573V187.336H718.568ZM726.559 189V179.822H728.015L731.629 185.451H730.888L734.489 179.822H735.958V189H733.917V183.267L734.281 183.358L731.928 187.024H730.576L728.236 183.358L728.587 183.267V189H726.559ZM737.718 189V179.822H739.759V189H737.718ZM739.278 189V187.232H744.309V189H739.278ZM739.278 185.165V183.462H743.854V185.165H739.278ZM739.278 181.577V179.822H744.244V181.577H739.278ZM749.57 189V187.206H751.845C752.399 187.206 752.885 187.098 753.301 186.881C753.717 186.656 754.037 186.331 754.263 185.906C754.488 185.481 754.601 184.979 754.601 184.398C754.601 183.817 754.484 183.319 754.25 182.903C754.024 182.487 753.704 182.166 753.288 181.941C752.88 181.716 752.399 181.603 751.845 181.603H749.505V179.822H751.871C752.564 179.822 753.201 179.935 753.782 180.16C754.371 180.377 754.882 180.693 755.316 181.109C755.758 181.516 756.096 182.002 756.33 182.565C756.572 183.12 756.694 183.735 756.694 184.411C756.694 185.078 756.572 185.694 756.33 186.257C756.096 186.82 755.762 187.306 755.329 187.713C754.895 188.12 754.384 188.437 753.795 188.662C753.214 188.887 752.581 189 751.897 189H749.57ZM748.192 189V179.822H750.233V189H748.192ZM757.992 189V179.822H760.033V189H757.992ZM759.552 189V187.232H764.583V189H759.552ZM759.552 185.165V183.462H764.128V185.165H759.552ZM759.552 181.577V179.822H764.518V181.577H759.552ZM768.673 189L765.137 179.822H767.321L770.012 187.245H769.115L771.845 179.822H774.003L770.428 189H768.673ZM775.08 189V179.822H777.121V189H775.08ZM776.64 189V187.232H781.671V189H776.64ZM776.64 185.165V183.462H781.216V185.165H776.64ZM776.64 181.577V179.822H781.606V181.577H776.64ZM783.078 189V179.822H785.119V189H783.078ZM784.651 189V187.206H789.188V189H784.651ZM794.239 189.156C793.545 189.156 792.904 189.035 792.315 188.792C791.734 188.549 791.223 188.211 790.781 187.778C790.339 187.345 789.996 186.842 789.754 186.27C789.511 185.689 789.39 185.065 789.39 184.398C789.39 183.722 789.511 183.098 789.754 182.526C789.996 181.954 790.334 181.456 790.768 181.031C791.201 180.598 791.708 180.264 792.289 180.03C792.878 179.787 793.519 179.666 794.213 179.666C794.897 179.666 795.53 179.787 796.111 180.03C796.7 180.264 797.211 180.598 797.645 181.031C798.087 181.456 798.429 181.958 798.672 182.539C798.914 183.111 799.036 183.735 799.036 184.411C799.036 185.078 798.914 185.702 798.672 186.283C798.429 186.855 798.091 187.358 797.658 187.791C797.224 188.216 796.713 188.549 796.124 188.792C795.543 189.035 794.915 189.156 794.239 189.156ZM794.213 187.297C794.759 187.297 795.235 187.176 795.643 186.933C796.059 186.69 796.379 186.352 796.605 185.919C796.83 185.477 796.943 184.97 796.943 184.398C796.943 183.965 796.878 183.575 796.748 183.228C796.618 182.873 796.431 182.569 796.189 182.318C795.946 182.058 795.656 181.863 795.318 181.733C794.988 181.594 794.62 181.525 794.213 181.525C793.667 181.525 793.186 181.646 792.77 181.889C792.362 182.123 792.046 182.457 791.821 182.89C791.595 183.315 791.483 183.817 791.483 184.398C791.483 184.831 791.548 185.226 791.678 185.581C791.808 185.936 791.99 186.244 792.224 186.504C792.466 186.755 792.757 186.95 793.095 187.089C793.433 187.228 793.805 187.297 794.213 187.297ZM801.891 185.659V184.073H803.867C804.119 184.073 804.348 184.021 804.556 183.917C804.764 183.813 804.929 183.661 805.05 183.462C805.172 183.263 805.232 183.02 805.232 182.734C805.232 182.457 805.172 182.218 805.05 182.019C804.929 181.82 804.764 181.668 804.556 181.564C804.348 181.46 804.119 181.408 803.867 181.408H801.891V179.822H804.166C804.747 179.822 805.271 179.939 805.739 180.173C806.207 180.407 806.576 180.745 806.844 181.187C807.122 181.62 807.26 182.136 807.26 182.734C807.26 183.332 807.122 183.852 806.844 184.294C806.576 184.727 806.207 185.065 805.739 185.308C805.271 185.542 804.747 185.659 804.166 185.659H801.891ZM800.331 189V179.822H802.372V189H800.331ZM808.405 189V179.822H810.446V189H808.405ZM809.965 189V187.232H814.996V189H809.965ZM809.965 185.165V183.462H814.541V185.165H809.965ZM809.965 181.577V179.822H814.931V181.577H809.965ZM817.964 185.217V183.709H819.901C820.308 183.709 820.62 183.605 820.837 183.397C821.062 183.189 821.175 182.907 821.175 182.552C821.175 182.223 821.066 181.95 820.85 181.733C820.633 181.516 820.321 181.408 819.914 181.408H817.964V179.822H820.148C820.754 179.822 821.287 179.939 821.747 180.173C822.206 180.398 822.566 180.715 822.826 181.122C823.086 181.529 823.216 181.997 823.216 182.526C823.216 183.063 823.086 183.536 822.826 183.943C822.566 184.342 822.202 184.654 821.734 184.879C821.266 185.104 820.715 185.217 820.083 185.217H817.964ZM816.404 189V179.822H818.445V189H816.404ZM821.396 189L818.536 185.048L820.408 184.541L823.814 189H821.396Z" fill="black"/>
</svg>
